<svg width="313" height="417" viewBox="0 0 313 417" fill="none" xmlns="http://www.w3.org/2000/svg">
<path d="M42.1566 98.4814C42.5956 95.5127 42.7773 92.4757 43.5646 89.6058C43.9885 88.0417 43.5116 88.0038 42.3912 87.7912C40.6653 87.4647 38.9091 87.161 37.274 86.5536C34.2309 85.4299 33.7313 84.0177 35.0106 81.0719C36.0628 78.6575 36.9939 76.1823 38.1521 73.8211C40.5972 68.8404 44.6319 66.3273 50.1958 66.0692C55.4493 65.8262 60.7028 65.4846 65.9336 64.9531C68.5982 64.6874 70.3923 65.1429 70.8616 68.1192C70.9676 68.7949 71.2855 69.6832 71.8003 70.0097C74.4497 71.718 73.8593 74.0033 73.2461 76.4177C73.0342 77.2605 72.9055 78.8245 73.2613 78.9991C74.692 79.7052 76.3195 80.0013 77.8789 80.4417C77.947 79.933 78.1968 79.3636 78.053 78.9232C77.5761 77.4882 76.5466 76.114 76.5163 74.6942C76.486 73.2365 76.9705 71.1713 77.9849 70.4804C78.7873 69.9338 80.7479 70.9891 82.1483 71.4674C82.7463 71.6724 83.2384 72.2039 83.7758 72.5911C83.8667 71.9078 84.0408 71.2169 84.0257 70.5336C83.9727 67.2612 83.5185 63.9433 83.8515 60.7165C84.3284 56.0851 86.7054 54.6653 91.1716 55.7966C93.3669 56.3509 95.5092 57.1101 97.6969 57.6947C98.6355 57.9453 99.665 58.211 100.596 58.0819C101.376 57.9757 102.072 57.2923 102.807 56.8672C102.11 56.5635 101.429 56.0927 100.702 55.9864C97.3032 55.4626 94.9036 53.7467 93.5637 50.5199C92.7689 48.6066 93.0338 47.3842 95.2821 46.921C96.0239 46.7692 96.6825 46.2225 97.3789 45.8505C96.6901 45.2355 96.0996 44.4155 95.2972 44.0359C92.1027 42.525 91.3079 41.0825 93.0187 38.2429C94.5781 35.6539 93.0187 36.3144 91.5728 36.4283C87.7652 36.7244 86.2133 35.5172 86.0544 32.2145C85.9711 30.453 86.3875 29.3142 88.5752 29.4356C90.0286 29.5192 91.641 29.3369 92.9657 28.7599C96.6598 27.1579 97.3789 23.4983 94.79 20.4006C93.7378 19.1403 92.6175 17.9407 91.5955 16.6576C90.1875 14.8885 88.8477 13.2865 89.8923 10.5532C90.3314 9.41436 89.1353 7.53143 88.454 6.09646C86.5616 2.11801 87.7576 -0.212868 92.1027 -0.000279306C95.8498 0.181939 99.5591 1.09303 103.299 1.59413C107.727 2.18635 111.989 3.67447 116.584 3.49984C118.393 3.43151 120.24 5.04111 122.125 5.72443C123.813 6.33182 125.463 7.5618 127.439 6.05849C127.84 5.7548 129.778 6.47608 129.892 6.98477C130.792 10.9708 131.678 15.01 131.951 19.072C132.011 20.0286 129.687 21.1219 128.521 22.2076C128.135 22.5645 127.939 23.1263 127.651 23.597C128.12 23.635 128.62 23.8172 129.044 23.6957C130.611 23.2402 132.147 22.6935 133.692 22.1621C136.031 21.3573 137.613 21.9571 137.189 24.6524C136.773 27.3022 137.681 27.4009 139.748 26.6416C142.677 25.5635 145.433 25.8824 147.855 28.0462C152.654 32.3435 157.741 29.8608 162.753 28.6005C163.176 28.4942 163.502 27.9779 163.873 27.6514C163.457 27.3098 162.987 27.0212 162.631 26.6264C161.791 25.7077 160.148 24.3943 160.36 23.8628C161.064 22.1241 162.2 20.2943 163.684 19.239C164.501 18.6544 166.863 19.0568 167.643 19.8692C169.452 21.7521 170.86 24.083 172.169 26.3759C173.237 28.2436 171.655 29.1168 170.292 29.8229C167.93 31.0452 165.932 31.7741 166.81 35.6235C167.537 38.7971 164.191 41.0445 161.662 43.0033C160.429 43.96 158.286 45.0837 158.324 46.0631C158.415 48.2194 159.611 50.3301 160.444 52.4332C160.482 52.5319 161.511 52.4863 161.768 52.2206C162.987 50.945 163.979 49.4417 165.273 48.2573C168.475 45.319 171.026 45.6911 173.252 49.138C173.456 49.4493 174.425 49.2519 175.046 49.2975C175.129 46.549 177.34 46.3744 179.225 45.7366C180.004 45.4709 180.67 44.9015 181.39 44.4687C180.829 43.8993 180.262 43.3374 179.709 42.7604C179.232 42.2593 178.77 41.7278 178.309 41.2115C178.975 40.718 179.626 39.8297 180.315 39.7993C184.917 39.5943 189.535 39.4349 194.13 39.5792C195.591 39.6247 195.848 39.5867 196.605 38.091C198.558 34.2113 201.034 30.5441 203.744 27.1351C205.136 25.3813 206.832 26.3076 207.097 28.6536C207.135 29.0029 207.188 29.3521 207.233 29.7014C207.566 29.5495 207.968 29.4736 208.21 29.2382C209.209 28.274 210.17 27.2718 211.117 26.262C212.888 24.3791 214.765 23.7413 217.157 25.3054C217.619 25.609 218.702 25.1611 219.391 24.8346C219.761 24.66 219.807 23.8856 220.163 23.5743C221.427 22.4506 222.767 21.4104 224.076 20.3399C225.015 21.5623 226.249 22.6556 226.824 24.0298C228.043 26.9301 229.012 29.5343 232.835 30.2253C234.803 30.5821 236.733 32.5561 238.141 34.2493C239.981 36.4662 241.563 36.8535 243.788 35.0085C244.432 34.477 245.363 34.1885 246.203 34.0291C249.791 33.3306 251.684 35.0768 250.753 38.6149C250.185 40.7788 251.025 41.6823 252.622 42.4643C255.242 43.7474 255.991 45.6379 254.749 48.356C254.5 48.9027 254.5 50.1402 254.749 50.2465C257.641 51.5145 259.564 54.635 263.44 54.1111C268.686 53.405 268.814 53.61 270.737 58.4008C272.796 63.5485 274.946 68.6962 276.452 74.0109C277.164 76.5164 276.498 79.4243 276.392 82.15C276.354 83.1522 275.915 84.162 276.021 85.1338C276.43 88.9756 275.877 92.1796 272.531 94.8749C269.761 97.1147 271.093 100.782 270.987 103.857C270.979 104.145 271.918 104.449 272.395 104.776C277.497 108.185 282.698 111.464 287.61 115.132C288.594 115.868 288.852 118.123 288.753 119.626C288.617 121.6 287.898 123.567 287.255 125.473C286.021 129.147 286.816 131.448 290.411 132.989C292.417 133.847 293.583 134.826 293.159 137.21C293.023 137.992 293.432 138.911 293.727 139.716C295.778 145.327 296.899 150.869 292.932 156.207C292.644 156.594 292.531 157.444 292.758 157.824C294.09 160.049 295.475 162.258 296.997 164.353C298.14 165.925 299.283 167.307 298.299 169.494C298.08 169.987 298.852 171.376 299.51 171.741C301.145 172.644 302.917 173.419 304.726 173.829C307.633 174.489 309.094 176.137 309.222 179.06C309.313 181.11 309.82 182.75 311.387 184.405C312.402 185.483 312.008 187.89 312.235 189.705C312.44 191.345 312.682 192.985 312.811 194.625C312.909 195.968 313.204 197.434 312.811 198.656C311.463 202.855 310.048 207.053 308.216 211.047C307.701 212.178 305.589 213.287 304.332 213.165C302.864 213.029 301.168 211.806 300.199 210.561C298.64 208.557 297.852 205.93 296.24 203.986C295.218 202.748 293.371 201.966 291.744 201.526C290.585 201.215 289.185 201.807 287.89 201.997C288.678 202.878 289.321 204.009 290.29 204.578C292.803 206.051 292.712 207.805 290.775 209.377C287.277 212.216 283.856 215.215 279.064 215.929C277.785 216.119 276.422 217.296 275.552 218.381C273.924 220.393 272.281 221.449 269.473 221.312C267.982 221.236 265.877 222.557 264.976 223.878C262.683 227.219 259.518 228.715 255.953 230.286C252.017 232.017 248.043 234.189 245.938 238.562C245.401 239.678 243.644 240.604 242.305 240.847C239.602 241.341 236.786 241.561 234.046 241.417C230.094 241.204 227.566 242.89 225.946 246.344C225.091 248.166 224.243 250.011 223.206 251.735C222.736 252.509 221.896 253.147 221.086 253.603C220.511 253.922 219.701 253.83 218.989 253.922C219.443 254.787 219.708 255.88 220.397 256.495C223.312 259.107 226.385 261.529 229.33 264.111C232.494 266.889 232.214 266.76 229.875 270.078C228.898 271.46 228.384 274.178 229.088 275.568C231.964 281.277 235.136 286.873 238.709 292.165C240.503 294.822 243.205 296.918 247.119 296.029C247.959 295.839 249.367 296.933 250.117 297.791C252.115 300.061 253.811 302.604 255.802 304.882C257.316 306.613 258.701 308.709 261.767 307.699C262.478 307.464 263.909 308.731 264.704 309.597C267.134 312.239 268.224 315.8 273.099 316.263C275.779 316.514 278.837 320.037 280.427 322.823C282.289 326.08 283.326 330.112 283.583 333.885C283.735 336.148 281.842 338.63 280.563 340.832C280.328 341.242 278.564 340.969 277.603 340.688C276.43 340.346 275.408 339.39 274.227 339.17C271.54 338.684 270.926 339.435 271.608 342.032C272.312 344.735 271.714 347.271 269.677 348.971C266.801 351.363 263.508 353.231 260.503 355.471C256.703 358.295 252.978 361.218 249.329 364.225C248.906 364.574 248.83 366.032 249.193 366.525C251.245 369.327 253.281 372.182 255.703 374.649C258.678 377.686 259.117 378.628 257.028 382.538C255.741 384.944 255.582 386.068 258.883 385.248C260.533 384.838 261.85 385.362 262.07 387.427C262.388 390.358 263.493 393.372 263.069 396.166C262.44 400.312 258.671 401.132 255.855 397.965C254.023 395.908 252.675 393.425 250.98 391.231C248.58 388.126 247.089 387.936 244.712 390.942C242.986 393.129 241.699 392.582 239.602 391.641C236.529 390.267 233.19 389.477 229.928 388.566C229.731 388.513 228.913 389.545 228.951 390.031C228.997 390.722 229.708 391.352 229.867 392.066C230.079 392.992 230.405 394.245 229.973 394.845C229.58 395.392 228.172 395.566 227.331 395.384C217.521 393.266 209.3 396.713 201.753 402.574C201.117 403.068 200.791 403.979 200.367 404.715C198.71 407.615 196.355 408.557 192.858 407.995C191.836 407.836 190.716 408.458 189.641 408.473C186.81 408.504 183.91 408.762 181.178 408.223C179.187 407.836 177.037 406.583 178.596 403.614C178.763 403.295 177.809 401.845 177.302 401.807C175.061 401.625 172.798 401.762 170.542 401.784C169.717 401.784 168.831 401.982 168.089 401.739C167.4 401.511 166.878 400.805 166.28 400.312C166.295 401.185 166.22 402.081 166.348 402.939C166.992 407.281 165.485 411.017 162.669 414.069C161.42 415.428 159.361 416.263 157.514 416.787C155.168 417.455 153.744 416.529 154.653 413.773C155.016 412.68 155.364 411.814 153.532 412.11C153.199 412.163 152.45 411.154 152.291 410.531C151.473 407.342 149.346 406.021 146.227 405.869C145.486 405.831 144.411 405.824 144.062 405.368C141.769 402.339 139.521 404.093 137.091 405.11C134.35 406.264 131.716 405.285 129.771 403.409C124.479 398.3 118.332 396.485 111.088 397.237C108.272 397.525 105.335 396.842 102.481 396.394C100.869 396.143 99.5666 395.46 100.717 393.304C101.921 391.056 99.7483 390.859 98.5447 390.343C96.9853 389.675 95.2594 389.356 94.4267 391.466C93.8135 393.023 93.2306 394.807 95.4638 395.566C97.6666 396.318 99.173 397.555 98.5447 399.962C98.0829 401.739 98.1511 404.837 94.6538 403.151C90.9294 405.983 88.5752 402.635 85.85 401.124C83.7077 399.94 81.9288 400 80.0136 401.693C77.7275 403.713 75.184 404.244 71.9668 403.409C69.2644 402.703 66.2213 403.212 63.3296 403.318C60.2486 403.432 58.4773 402.422 57.8035 399.059C56.6832 393.448 55.1465 388.004 58.5984 382.568C59.257 381.528 58.8633 379.584 58.5151 378.164C57.3191 373.237 57.7581 368.56 60.6271 364.369C63.6551 359.943 65.1842 355.121 65.3886 349.814C65.5702 345.228 67.8336 341.895 71.0584 338.714C74.5027 335.313 77.3187 331.243 80.2786 327.371C81.9137 325.23 81.0128 323.795 78.5375 323.423C74.9342 322.884 71.3082 322.443 67.6747 322.079C63.4431 321.646 58.9844 321.957 56.4258 317.379C56.1382 316.863 54.6015 316.415 54.1624 316.711C51.6416 318.419 50.2261 316.506 48.5531 315.276C45.457 312.991 45.4722 313.059 43.663 316.567C43.3375 317.197 41.9143 317.706 41.1422 317.554C40.2717 317.379 39.4617 316.476 38.8107 315.732C37.3194 314.023 36.0174 313.317 33.6631 314.729C30.8169 316.43 23.5119 313.097 22.5808 309.878C22.2705 308.807 22.4143 307.167 23.0577 306.347C24.7231 304.229 23.5725 303.128 21.9828 302.065C20.8322 301.298 19.5529 300.744 18.3871 300C15.2305 297.973 14.5189 295.604 16.3357 292.271C17.4106 290.289 18.8867 288.528 20.219 286.691C22.3916 283.699 22.0736 282.659 19.0987 280.146C16.3432 277.815 13.6635 275.325 11.3774 272.546C9.99208 270.86 9.28808 268.552 8.52353 266.434C6.896 261.909 7.79682 257.991 11.6726 254.931C12.4599 254.309 13.1336 253.534 13.8982 252.881C18.7959 248.706 18.266 244.514 12.5053 241.69C11.4985 241.197 10.2419 240.68 9.76499 239.807C9.29565 238.957 9.24267 236.96 9.74985 236.641C11.9148 235.259 10.7415 234.363 9.68929 233.194C8.59165 231.979 7.50159 230.727 6.62348 229.352C4.90512 226.665 5.82864 224.197 7.76654 222.124C9.44705 220.325 9.03828 219.801 6.79002 219.429C4.1557 218.996 1.61978 218.191 0.454018 215.322C-0.43166 213.135 -0.212133 211.457 2.12696 210.295C4.26924 209.232 6.3434 208.033 8.37213 206.765C10.1208 205.672 10.9383 204.502 8.19802 203.515C6.04817 202.741 6.03303 201.329 7.26692 199.674C7.41832 199.469 7.55458 199.248 7.74383 199.089C12.9822 194.655 12.316 189.667 9.2351 184.36C7.78168 181.854 6.35853 179.295 5.27604 176.623C4.42821 174.505 4.01187 172.181 3.65608 169.911C3.5501 169.22 4.14056 167.861 4.6326 167.74C6.67647 167.261 8.61436 166.935 8.88688 164.278C8.88688 164.202 10.469 164.156 11.2638 164.331C13.3455 164.801 15.397 165.409 17.4636 165.955C22.1645 167.208 25.7602 164.968 29.1969 162.22C30.8017 160.937 30.3172 159.828 29.1288 158.424C26.5929 155.432 27.4483 153.147 31.2256 152.297C31.8237 152.16 32.7775 152.206 32.9743 151.849C35.2301 147.665 37.433 143.459 39.4087 139.139C39.5677 138.797 38.0461 137.279 37.0772 136.892C34.8668 136.011 32.452 135.646 30.234 134.788C26.6231 133.399 25.094 130.848 25.7753 127.864C26.5172 124.607 29.1288 122.716 32.785 122.792C37.8796 122.899 37.7887 122.891 38.3489 117.789C38.8258 113.446 39.0226 109.141 42.1944 105.398C43.4207 103.956 42.7167 100.873 42.8908 98.5345C42.6335 98.5117 42.3837 98.4814 42.1263 98.4586L42.1566 98.4814ZM175.833 52.2737C176.189 51.9624 176.552 51.6436 176.908 51.3323L174.554 49.9884C174.978 50.7552 175.402 51.5145 175.833 52.2813V52.2737ZM43.3526 98.1701C43.7992 98.2764 44.2534 98.3827 44.7001 98.489C44.3897 101.177 44.9877 104.586 43.5646 106.4C40.8243 109.908 40.4382 113.742 40.037 117.69C39.3557 124.326 39.4465 124.372 32.6261 124.41C29.8403 124.425 27.963 125.632 27.4256 128.365C26.8654 131.167 28.7806 132.564 31.0137 133.391C33.0121 134.135 35.1241 134.553 37.1907 135.138C41.2936 136.292 42.255 137.795 40.5896 141.773C39.1892 145.129 37.2967 148.303 35.3512 151.386C34.6548 152.494 33.2922 153.489 32.028 153.876C28.9925 154.795 28.6746 155.227 30.7412 157.672C32.293 159.509 32.6866 161.294 30.8244 162.979C27.1606 166.267 23.1259 168.772 17.8723 167.724C15.8966 167.33 13.9663 166.7 11.9905 166.35C11.3092 166.229 9.92395 166.563 9.90125 166.798C9.67415 169.046 8.44026 169.456 6.47965 169.182C6.14658 169.137 5.29118 170.124 5.35174 170.526C5.61669 172.219 5.91191 173.981 6.60834 175.522C8.2283 179.083 10.1056 182.515 11.8467 186.015C14.0117 190.365 14.7838 194.571 10.5144 198.239C10.0526 198.641 9.81041 199.286 9.38649 199.749C8.39484 200.843 8.02391 201.473 9.78013 202.468C12.5356 204.024 12.5507 205.74 9.97694 207.668C8.18288 209.02 6.0406 209.901 4.16327 211.161C3.2246 211.791 1.71819 213.029 1.87716 213.575C2.26322 214.874 3.27002 216.255 4.42064 216.977C5.63182 217.736 7.31234 217.728 8.76576 218.138C10.9837 218.753 11.6196 219.885 10.1435 221.98C6.57049 227.052 6.60077 227.09 10.6809 231.79C11.3395 232.541 12.2631 233.118 12.74 233.953C13.0882 234.568 13.2396 235.965 12.9065 236.201C9.59088 238.562 11.7105 239.579 13.9133 240.453C15.8663 241.227 17.1911 242.229 18.0389 244.408C19.6891 248.652 19.3258 251.879 15.0563 254.187C14.0874 254.711 13.3834 255.721 12.4901 256.412C9.64387 258.614 8.86417 261.537 9.80284 264.855C10.416 267.011 11.0443 269.38 12.3917 271.073C14.7081 273.981 17.4333 276.631 20.2871 279.03C23.845 282.021 24.2916 283.919 21.574 287.655C20.3855 289.287 19.0608 290.836 18.0465 292.567C16.3205 295.513 16.7974 297.092 19.6664 298.846C20.7413 299.507 21.8768 300.068 22.929 300.752C25.3136 302.301 26.7291 304.092 24.6323 306.962C24.1932 307.562 24.0191 308.671 24.2311 309.392C24.8518 311.465 30.7487 314.547 32.5049 313.424C35.8054 311.313 38.1142 312.194 40.3776 314.874C40.6653 315.215 42.0052 315.253 42.2701 314.942C45.3813 311.214 45.6463 311.229 49.7265 314.008C50.7862 314.729 52.3986 315.185 53.6325 314.988C55.6688 314.661 56.8119 315.398 58.235 316.719C59.7793 318.161 61.7853 319.308 63.7838 319.999C65.5097 320.598 67.5309 320.28 69.4006 320.53C73.0115 321.008 76.6829 321.32 80.1877 322.238C83.2838 323.051 83.5109 324.714 82.1105 327.644C79.6503 332.777 75.941 336.854 71.717 340.498C68.8707 342.951 67.2432 345.874 67.0691 349.655C66.8117 355.19 65.4037 360.36 62.1865 364.969C59.4008 368.962 59.0071 373.32 60.1275 378.005C60.5211 379.652 60.9148 381.907 60.1275 383.13C56.8422 388.224 58.2804 393.266 59.3402 398.489C59.855 401.04 61.0359 401.838 63.4431 401.716C66.3272 401.572 69.3779 401.04 72.0652 401.762C75.0478 402.559 77.2733 401.997 79.3399 400.152C81.732 398.019 84.1165 398.269 86.6297 399.734C87.7122 400.372 88.7038 401.215 89.8545 401.686C90.3768 401.898 91.5501 401.633 91.7924 401.215C92.8521 399.393 93.9044 398.74 95.6 400.494C95.706 400.6 96.4857 400.053 96.9475 399.818C96.2586 398.93 95.6 398.019 94.8733 397.168C94.0255 396.166 92.6402 395.346 92.3223 394.215C91.5501 391.444 93.5713 388.574 96.1148 388.255C99.4152 387.845 102.579 390.297 102.799 393.258C102.844 393.888 103.579 394.921 104.078 394.974C107.19 395.301 110.346 395.68 113.457 395.513C119.294 395.209 124.517 396.584 128.794 400.608C132.261 403.872 135.736 404.966 139.876 401.967C140.467 401.534 141.246 401.245 141.973 401.154C142.48 401.094 143.495 401.443 143.517 401.693C143.851 404.624 146.394 403.819 148.022 404.647C149.914 405.611 151.511 407.168 153.26 408.428C153.858 408.861 154.509 409.354 155.198 409.506C155.947 409.665 156.78 409.445 157.575 409.392C157.431 410.22 157.249 411.047 157.166 411.882C157.068 412.915 157.052 413.955 157.007 414.988C158.15 414.669 159.596 414.692 160.376 413.97C163.464 411.108 165.251 407.593 164.69 403.189C164.516 401.815 164.236 400.41 164.38 399.059C164.554 397.442 166.03 396.606 166.977 397.927C168.869 400.554 171.14 399.97 173.661 399.772C175.372 399.643 177.241 399.924 178.831 400.562C179.739 400.927 181.004 402.847 180.761 403.25C178.702 406.666 181.458 407.069 183.373 407.145C185.909 407.243 188.483 406.575 191.034 406.211C192.101 406.059 193.547 405.277 194.137 405.71C196.688 407.585 197.582 405.512 198.71 404.055C199.202 403.417 199.156 402.24 199.724 401.807C207.445 395.953 215.795 391.983 225.863 393.38C226.582 393.478 227.331 393.38 228.066 393.38C227.907 392.681 227.891 391.892 227.543 391.299C226.801 390.031 226.044 388.923 227.672 387.738C229.072 386.721 230.352 385.772 231.926 387.503C232.29 387.898 233.107 388.171 233.629 388.065C236.362 387.518 238.482 388.634 240.632 390.122C241.199 390.517 242.706 390.327 243.274 389.826C247.369 386.205 249.405 386.372 252.706 390.897C254.045 392.734 255.189 394.731 256.672 396.432C257.414 397.282 258.928 398.262 259.746 398.019C260.624 397.753 261.638 396.113 261.623 395.088C261.585 392.901 260.874 390.737 260.533 388.551C260.313 387.146 259.783 386.729 258.277 386.941C257.036 387.116 255.688 386.592 254.394 386.379C254.719 384.982 254.742 383.418 255.423 382.234C256.914 379.637 256.733 377.868 254.394 375.674C251.714 373.153 249.557 370.025 247.467 366.958C246.952 366.206 247.104 364.156 247.732 363.602C251.578 360.239 255.605 357.073 259.662 353.967C262.63 351.697 265.968 349.867 268.663 347.331C269.73 346.329 270.147 343.74 269.708 342.207C268.549 338.114 268.519 337.697 272.781 337.568C274.303 337.522 275.854 338.274 277.383 338.691C278.08 338.881 279.299 339.45 279.344 339.359C280.336 337.431 282.084 335.351 281.895 333.475C281.554 330.066 280.646 326.407 278.867 323.537C277.353 321.092 274.53 318.556 271.857 317.956C267.936 317.068 266.278 314.487 264.242 311.784C263.538 310.857 262.304 309.422 261.578 309.574C257.982 310.311 256.226 307.889 254.326 305.77C252.479 303.705 250.949 301.344 249.072 299.317C248.36 298.55 247.058 298.284 245.999 297.882C243.932 297.1 241.472 296.849 239.837 295.551C233.281 290.335 230.019 282.834 227.157 275.264C226.544 273.639 227.187 270.655 228.391 269.41C230.511 267.208 229.375 266.35 227.823 265.014C222.873 260.778 217.513 257.027 214.629 250.702C213.547 248.334 212.979 246.572 215.212 245.297C217.468 244.006 218.914 246.003 220.034 247.673C220.677 248.637 220.942 249.852 221.374 250.961C222.063 249.799 222.767 248.645 223.44 247.468C223.819 246.815 224.144 246.132 224.493 245.456C226.468 241.66 229.277 239.504 233.864 239.838C236.589 240.035 239.39 239.663 242.108 239.238C243.031 239.094 244.432 238.099 244.538 237.347C244.833 235.191 246.453 234.705 247.808 233.604C251.252 230.818 254.802 228.464 259.117 227.166C260.609 226.718 261.736 224.941 262.948 223.681C263.818 222.777 264.416 221.031 265.34 220.872C270.29 220.021 274.144 217.379 278.065 214.456C280.48 212.657 283.825 212.163 286.452 210.576C290.631 208.056 290.479 207.926 287.164 204.328C286.49 203.599 285.945 202.3 286.112 201.405C286.233 200.752 287.542 200.083 288.436 199.848C291.509 199.036 296.354 200.82 297.89 203.318C299.215 205.467 300.252 207.805 301.645 209.908C302.19 210.728 303.31 211.465 304.257 211.609C305.006 211.723 306.52 210.994 306.641 210.417C307.898 204.685 312.811 200.03 310.388 193.03C309.275 189.819 311.357 185.476 307.86 182.507C308.322 177.268 305.4 175.135 300.699 174.421C299.662 174.262 298.572 173.48 297.822 172.682C297.126 171.953 296.263 170.64 296.49 169.904C297.232 167.58 296.187 166.107 294.9 164.445C293.469 162.592 292.092 160.633 291.115 158.522C290.706 157.642 291.244 156.199 291.638 155.113C292.092 153.853 293.106 152.783 293.462 151.515C295.029 145.957 291.645 141.022 291.259 135.692C291.236 135.35 290.593 135.001 290.184 134.75C284.386 131.228 283.886 129.876 286.074 123.529C288.027 117.865 287.898 117.523 283.061 113.917C281.342 112.634 279.783 111.13 278.034 109.9C276.293 108.678 274.484 106.993 272.546 106.727C269.125 106.256 268.708 104.783 269.132 101.754C269.549 98.7775 268.852 95.452 271.623 93.3717C274.219 91.4204 274.742 88.9984 274.393 86.0449C274.265 84.9288 274.128 83.6381 274.545 82.6739C276.309 78.5891 275.309 74.6942 273.901 70.8828C272.243 66.3881 270.434 61.9465 268.436 57.596C267.997 56.6394 266.263 55.417 265.476 55.6296C260.624 56.9507 257.285 54.0428 253.796 51.7043C253.069 51.2184 252.448 49.3506 252.804 48.6673C254.242 45.934 253.243 44.6737 250.874 43.2463C249.799 42.6009 249.39 40.6649 248.943 39.2299C248.61 38.1594 248.701 36.9598 248.595 35.8133C247.278 36.0107 245.825 35.9044 244.674 36.4511C240.034 38.6908 240.155 38.6757 236.423 34.9402C234.947 33.4672 232.994 31.4628 231.268 31.4704C227.778 31.4856 227.21 29.3066 226.226 27.0061C225.545 25.4268 224.636 23.9539 223.834 22.4278C222.668 23.7945 221.434 25.1079 220.359 26.5505C219.481 27.7273 218.709 29.1319 217.173 27.5527C214.955 25.275 213.229 26.1481 211.51 28.1221C210.685 29.0712 209.875 30.0582 208.914 30.863C208.013 31.6223 206.923 32.1613 205.924 32.7915C205.613 31.7893 205.363 30.7643 204.962 29.8077C204.849 29.5419 204.008 29.3066 204.001 29.3142C202.192 32.913 197.763 34.9781 198.119 39.9208C198.286 42.2593 196.416 41.5912 194.856 41.4773C191.019 41.1888 187.158 41.1432 183.312 41.09C182.926 41.09 182.139 41.7961 182.192 42.0087C183.282 46.177 183.305 46.1846 179.444 47.3614C177.983 47.8094 176.34 47.8777 178.18 50.1099C178.748 50.8008 178.347 52.828 177.696 53.7467C177.362 54.2174 175.243 53.982 174.387 53.3974C173.214 52.6002 171.988 51.2867 171.662 49.9732C170.951 47.1412 169.414 47.6727 167.756 48.6294C166.696 49.2367 165.803 50.1858 164.955 51.0893C163.752 52.38 162.768 53.8985 161.481 55.0829C160.02 56.4268 158.771 56.5786 158.612 53.9592C158.536 52.7141 158.294 51.4386 157.855 50.2769C155.788 44.7572 155.909 44.985 160.58 41.576C162.556 40.1334 165.281 37.2483 164.933 35.5931C164.062 31.4628 166.015 30.0962 168.922 28.6536C169.55 28.3423 170.436 27.1579 170.292 26.8998C169.119 24.8194 167.817 22.7922 166.326 20.9321C165.985 20.5069 164.471 20.4538 163.986 20.841C163.078 21.5699 162.435 22.7087 161.912 23.7869C161.837 23.9463 162.98 24.7283 163.578 25.1991C164.304 25.7837 165.758 26.5505 165.667 26.877C165.341 27.9779 164.675 29.5343 163.782 29.8305C158.498 31.5843 153.018 34.3176 147.779 29.9671C144.267 27.0516 140.913 27.5831 137.31 29.4508C136.583 29.8305 135.736 29.9823 134.941 30.2404C134.941 29.4129 134.903 28.5777 134.963 27.7577C135.009 27.1351 135.198 26.5201 135.312 25.8976C135.66 23.9691 135.153 23.2858 133.132 24.1513C131.519 24.8422 129.808 25.3965 128.09 25.6774C127.257 25.814 125.652 25.3737 125.524 24.8954C125.282 23.9691 125.66 22.7391 126.122 21.8128C126.409 21.2358 127.272 20.8334 127.961 20.5904C130.482 19.6793 131.012 17.842 130.55 15.4504C130.361 14.4557 130.361 13.3928 129.998 12.4741C129.256 10.6064 130.49 6.16479 125.789 8.98918C125.531 9.14862 124.888 8.65511 124.419 8.47289C122.655 7.78957 120.815 7.26569 119.15 6.40015C117.416 5.49665 116.099 5.15499 114.714 7.03792C114.32 7.56939 112.875 7.31884 111.913 7.43273C112.617 3.48465 109.279 4.57797 107.553 4.20594C102.511 3.12781 97.4168 2.20153 92.2995 1.64728C89.0748 1.29803 88.4919 2.55078 89.9226 5.48906C90.5812 6.84811 92.0497 8.48808 91.7091 9.53584C90.1346 14.3722 93.7 16.6272 96.1299 19.444C97.977 21.5775 98.5296 23.9235 97.4092 26.4518C96.0012 29.6406 93.3215 31.106 89.8923 31.2578C88.8098 31.311 87.1974 31.0756 87.8484 32.8826C88.1664 33.7633 89.4154 34.7504 90.3314 34.8566C91.7772 35.0237 93.2988 34.3935 94.7976 34.2872C95.6909 34.2265 96.6144 34.515 97.5152 34.6441C97.0383 35.4716 96.6749 36.4055 96.0542 37.0964C92.9278 40.5814 92.996 40.4143 96.7961 42.7756C98.0451 43.55 98.7112 45.2811 99.6423 46.5794C98.575 47.2096 97.5682 48.189 96.4327 48.3788C94.6008 48.6825 94.5402 49.791 95.4335 50.6186C97.0232 52.0915 98.8702 53.405 100.823 54.3313C101.981 54.8855 103.564 54.5059 104.934 54.6805C105.592 54.764 106.213 55.1589 106.849 55.417C106.478 56.032 106.243 56.7912 105.729 57.224C102.966 59.5245 100.028 60.8 96.357 59.1069C94.5478 58.2718 92.5266 57.8769 90.5736 57.3986C87.2504 56.5938 85.9181 57.4442 85.358 60.8836C85.1006 62.4932 85.0552 64.1787 85.2217 65.7959C85.5623 69.0606 86.1982 72.2874 86.5389 75.5522C86.6297 76.4177 86.0998 77.3516 85.85 78.2551C84.8811 77.8375 83.6017 77.6781 83.0264 76.9492C82.1256 75.7951 81.8228 74.1855 81.0128 72.9328C80.6116 72.3102 79.6503 72.052 78.9463 71.6269C78.5829 72.3709 77.8108 73.2061 77.9395 73.8515C78.265 75.4307 79.1128 76.896 79.5518 78.4601C79.8092 79.3636 79.6881 80.3734 79.7411 81.3376C77.9773 81.368 76.1757 81.6337 74.4573 81.368C72.7995 81.1098 70.521 80.7454 71.0206 78.2779C71.6413 75.2181 72.9736 72.2343 69.4233 70.0401C69.2114 69.911 69.2568 69.3264 69.2265 68.9467C69.0675 66.669 67.6595 66.5247 65.7822 66.6766C60.4227 67.1245 55.0481 67.4131 49.6735 67.7699C45.457 68.0508 42.149 69.9945 40.09 73.6313C38.6139 76.2355 37.7282 79.1662 36.3656 81.8463C35.4723 83.6078 36.1082 84.61 37.6676 84.9972C40.0976 85.597 42.5881 86.1664 45.071 86.2499C47.1905 86.3259 47.0013 86.7662 46.3503 88.4441C45.124 91.6178 44.2837 94.9433 43.2845 98.2004L43.3526 98.1701ZM219.913 250.809C218.891 249.526 217.877 248.25 216.862 246.974C216.416 247.46 215.5 248.242 215.59 248.379C216.559 249.875 217.687 251.264 218.77 252.684C219.05 252.221 219.338 251.758 219.913 250.816V250.809ZM93.9725 401.557C93.753 401.989 93.4653 402.316 93.4804 402.62C93.4956 402.893 93.8438 403.159 94.0406 403.424C94.2223 403.166 94.5629 402.893 94.5478 402.642C94.5251 402.308 94.2223 402.005 93.9649 401.557H93.9725Z" fill="#99D100"/>
</svg>
