<svg width="455" height="607" viewBox="0 0 455 607" fill="none" xmlns="http://www.w3.org/2000/svg">
<path d="M61.2831 143.373C61.9214 139.052 62.1855 134.631 63.3299 130.453C63.9461 128.177 63.2529 128.121 61.6243 127.812C59.1153 127.337 56.5623 126.895 54.1854 126.01C49.7618 124.375 49.0355 122.319 50.8952 118.031C52.4248 114.517 53.7783 110.914 55.4619 107.477C59.0163 100.227 64.8815 96.5683 72.9695 96.1926C80.6064 95.8389 88.2433 95.3416 95.8472 94.568C99.7206 94.1812 102.329 94.8443 103.011 99.1766C103.165 100.16 103.627 101.453 104.375 101.928C108.227 104.415 107.369 107.742 106.477 111.256C106.169 112.483 105.982 114.76 106.499 115.014C108.579 116.042 110.945 116.473 113.212 117.114C113.311 116.373 113.674 115.544 113.465 114.903C112.772 112.815 111.275 110.814 111.231 108.747C111.187 106.626 111.891 103.619 113.366 102.614C114.532 101.818 117.382 103.354 119.418 104.05C120.287 104.349 121.003 105.122 121.784 105.686C121.916 104.691 122.169 103.686 122.147 102.691C122.07 97.9277 121.41 93.0981 121.894 88.401C122.587 81.6594 126.043 79.5927 132.535 81.2394C135.726 82.0462 138.84 83.1514 142.021 84.0024C143.385 84.3671 144.882 84.7539 146.235 84.566C147.369 84.4113 148.381 83.4167 149.448 82.7978C148.436 82.3557 147.446 81.6705 146.389 81.5157C141.448 80.7532 137.96 78.2554 136.012 73.5584C134.857 70.7734 135.242 68.994 138.51 68.3198C139.589 68.0988 140.546 67.3031 141.558 66.7615C140.557 65.8663 139.699 64.6727 138.532 64.1201C133.889 61.9208 132.733 59.821 135.22 55.6876C137.487 51.9189 135.22 52.8804 133.118 53.0462C127.583 53.4772 125.327 51.72 125.096 46.9124C124.975 44.3484 125.58 42.6906 128.761 42.8675C130.873 42.989 133.217 42.7238 135.143 41.8839C140.513 39.5519 141.558 34.2249 137.795 29.7158C136.265 27.8812 134.637 26.135 133.151 24.2672C131.105 21.6921 129.157 19.3602 130.675 15.3815C131.314 13.7238 129.575 10.9829 128.585 8.89412C125.834 3.10296 127.572 -0.289957 133.889 0.0194947C139.336 0.284739 144.728 1.61096 150.164 2.34038C156.601 3.20242 162.796 5.36858 169.476 5.11439C172.106 5.01493 174.791 7.35791 177.531 8.35258C179.985 9.23673 182.384 11.0271 185.256 8.83886C185.839 8.39679 188.656 9.44671 188.821 10.1872C190.131 15.9894 191.418 21.869 191.814 27.7817C191.902 29.1742 188.524 30.7657 186.83 32.3461C186.268 32.8656 185.982 33.6834 185.564 34.3686C186.246 34.4239 186.973 34.6891 187.589 34.5123C189.867 33.8492 192.101 33.0534 194.345 32.2798C197.746 31.1083 200.046 31.9814 199.429 35.9048C198.824 39.7619 200.145 39.9056 203.149 38.8004C207.407 37.231 211.413 37.6952 214.934 40.845C221.911 47.1003 229.306 43.4864 236.59 41.6518C237.207 41.497 237.68 40.7455 238.219 40.2703C237.614 39.7729 236.931 39.353 236.414 38.7783C235.193 37.441 232.805 35.529 233.113 34.7554C234.136 32.2245 235.787 29.5611 237.944 28.0249C239.132 27.1739 242.566 27.7596 243.699 28.9422C246.329 31.683 248.376 35.0759 250.28 38.4136C251.831 41.1323 249.531 42.4033 247.551 43.4311C244.117 45.2105 241.212 46.2714 242.489 51.8747C243.545 56.4944 238.681 59.7657 235.006 62.6171C233.212 64.0096 230.098 65.6453 230.153 67.071C230.285 70.2097 232.024 73.2821 233.234 76.3435C233.289 76.4872 234.786 76.4208 235.16 76.034C236.931 74.1773 238.373 71.9891 240.255 70.265C244.91 65.9879 248.618 66.5294 251.853 71.547C252.15 72.0001 253.559 71.7128 254.461 71.7791C254.582 67.7783 257.795 67.5241 260.535 66.5958C261.669 66.2089 262.637 65.3801 263.683 64.7501C262.868 63.9212 262.043 63.1034 261.24 62.2634C260.546 61.534 259.875 60.7604 259.204 60.0089C260.172 59.2905 261.119 57.9974 262.12 57.9532C268.811 57.6548 275.523 57.4227 282.203 57.6327C284.326 57.699 284.701 57.6438 285.801 55.4666C288.64 49.8191 292.238 44.481 296.178 39.5188C298.203 36.9658 300.668 38.3141 301.053 41.7291C301.108 42.2375 301.185 42.7459 301.251 43.2543C301.735 43.0332 302.318 42.9227 302.67 42.5801C304.123 41.1765 305.52 39.7177 306.896 38.2478C309.471 35.5069 312.2 34.5786 315.677 36.8553C316.349 37.2973 317.922 36.6453 318.923 36.1701C319.463 35.9159 319.529 34.7886 320.046 34.3354C321.884 32.6998 323.831 31.1857 325.735 29.6274C327.1 31.4067 328.893 32.9982 329.73 34.9986C331.501 39.2204 332.91 43.0111 338.467 44.0169C341.328 44.5363 344.134 47.4098 346.181 49.8743C348.855 53.1015 351.155 53.6651 354.39 50.9795C355.325 50.2059 356.679 49.7859 357.9 49.5538C363.116 48.5371 365.867 51.079 364.514 56.2291C363.688 59.3789 364.91 60.6941 367.232 61.8324C371.039 63.7002 372.129 66.4521 370.324 70.4086C369.961 71.2044 369.961 73.0058 370.324 73.1606C374.527 75.0062 377.323 79.5485 382.957 78.7859C390.583 77.7581 390.77 78.0565 393.565 85.0302C396.558 92.5234 399.683 100.017 401.873 107.753C402.907 111.4 401.939 115.633 401.785 119.6C401.73 121.059 401.092 122.529 401.246 123.944C401.84 129.536 401.036 134.2 396.173 138.123C392.145 141.384 394.082 146.722 393.928 151.198C393.917 151.618 395.281 152.06 395.975 152.535C403.391 157.497 410.951 162.272 418.093 167.61C419.523 168.682 419.898 171.964 419.755 174.152C419.557 177.026 418.511 179.888 417.576 182.662C415.782 188.011 416.938 191.36 422.165 193.603C425.081 194.852 426.775 196.278 426.159 199.748C425.961 200.887 426.555 202.224 426.984 203.395C429.966 211.563 431.595 219.631 425.829 227.4C425.411 227.964 425.246 229.201 425.576 229.754C427.513 232.992 429.526 236.208 431.738 239.259C433.4 241.546 435.061 243.558 433.631 246.741C433.312 247.459 434.434 249.482 435.392 250.012C437.768 251.327 440.343 252.454 442.973 253.051C447.199 254.013 449.323 256.411 449.51 260.666C449.642 263.65 450.379 266.037 452.657 268.447C454.132 270.016 453.559 273.519 453.889 276.161C454.187 278.548 454.539 280.935 454.726 283.322C454.869 285.278 455.298 287.411 454.726 289.191C452.767 295.302 450.709 301.414 448.046 307.227C447.298 308.874 444.228 310.488 442.401 310.311C440.266 310.112 437.801 308.333 436.393 306.52C434.126 303.602 432.982 299.779 430.638 296.949C429.152 295.148 426.467 294.009 424.101 293.368C422.418 292.915 420.382 293.777 418.5 294.054C419.645 295.336 420.58 296.982 421.988 297.811C425.642 299.955 425.51 302.508 422.693 304.796C417.609 308.929 412.635 313.295 405.669 314.334C403.81 314.61 401.829 316.323 400.563 317.904C398.197 320.832 395.81 322.368 391.727 322.169C389.559 322.059 386.5 323.982 385.191 325.905C381.856 330.768 377.257 332.945 372.074 335.233C366.351 337.753 360.574 340.913 357.515 347.279C356.734 348.904 354.181 350.252 352.233 350.606C348.305 351.324 344.211 351.645 340.228 351.435C334.483 351.125 330.808 353.579 328.453 358.607C327.21 361.26 325.977 363.945 324.47 366.454C323.787 367.581 322.566 368.51 321.388 369.173C320.552 369.637 319.375 369.505 318.34 369.637C319.001 370.897 319.386 372.488 320.387 373.384C324.624 377.186 329.091 380.711 333.372 384.469C337.972 388.514 337.565 388.326 334.164 393.155C332.745 395.167 331.996 399.123 333.02 401.146C337.201 409.457 341.812 417.602 347.006 425.305C349.614 429.173 353.543 432.224 359.232 430.931C360.453 430.654 362.5 432.246 363.589 433.495C366.494 436.799 368.959 440.502 371.854 443.817C374.054 446.337 376.068 449.387 380.525 447.917C381.559 447.575 383.639 449.42 384.794 450.68C388.327 454.526 389.911 459.71 396.998 460.384C400.893 460.748 405.339 465.877 407.65 469.933C410.357 474.674 411.865 480.542 412.239 486.035C412.459 489.329 409.708 492.943 407.848 496.148C407.507 496.744 404.943 496.346 403.545 495.938C401.84 495.44 400.354 494.048 398.638 493.727C394.731 493.02 393.84 494.114 394.83 497.894C395.854 501.828 394.984 505.519 392.024 507.995C387.843 511.476 383.056 514.195 378.687 517.455C373.163 521.567 367.749 525.822 362.445 530.198C361.829 530.707 361.719 532.829 362.247 533.547C365.229 537.625 368.189 541.781 371.71 545.372C376.035 549.793 376.673 551.164 373.636 556.855C371.765 560.359 371.534 561.994 376.332 560.801C378.731 560.204 380.646 560.967 380.965 563.973C381.427 568.239 383.034 572.626 382.417 576.693C381.504 582.728 376.024 583.921 371.931 579.313C369.267 576.318 367.309 572.704 364.844 569.51C361.355 564.989 359.188 564.713 355.732 569.09C353.223 572.273 351.353 571.477 348.305 570.106C343.837 568.106 338.984 566.957 334.241 565.63C333.955 565.553 332.767 567.056 332.822 567.763C332.888 568.769 333.922 569.686 334.153 570.725C334.461 572.074 334.935 573.897 334.307 574.77C333.735 575.566 331.688 575.82 330.467 575.555C316.205 572.471 304.255 577.489 293.284 586.021C292.359 586.739 291.886 588.066 291.27 589.138C288.86 593.359 285.438 594.73 280.354 593.912C278.868 593.68 277.24 594.586 275.677 594.608C271.562 594.653 267.347 595.028 263.374 594.244C260.48 593.68 257.355 591.856 259.622 587.535C259.864 587.071 258.478 584.96 257.74 584.905C254.483 584.64 251.193 584.839 247.914 584.872C246.714 584.872 245.427 585.159 244.348 584.805C243.347 584.474 242.588 583.446 241.718 582.728C241.74 583.999 241.63 585.303 241.817 586.552C242.753 592.873 240.563 598.311 236.469 602.754C234.654 604.732 231.66 605.948 228.975 606.71C225.564 607.683 223.495 606.334 224.816 602.323C225.344 600.731 225.85 599.471 223.187 599.902C222.703 599.979 221.614 598.51 221.383 597.603C220.194 592.962 217.102 591.039 212.568 590.818C211.49 590.762 209.927 590.751 209.421 590.088C206.087 585.678 202.819 588.231 199.286 589.712C195.303 591.392 191.473 589.967 188.645 587.237C180.953 579.799 172.018 577.157 161.487 578.252C157.393 578.672 153.124 577.677 148.975 577.025C146.631 576.66 144.739 575.666 146.411 572.527C148.161 569.255 145.003 568.968 143.253 568.217C140.986 567.244 138.477 566.78 137.267 569.852C136.375 572.118 135.528 574.715 138.774 575.82C141.977 576.914 144.166 578.716 143.253 582.219C142.582 584.805 142.681 589.315 137.597 586.861C132.183 590.983 128.761 586.109 124.799 583.91C121.685 582.186 119.099 582.274 116.315 584.739C112.992 587.679 109.294 588.452 104.617 587.237C100.689 586.209 96.2653 586.949 92.0618 587.104C87.5831 587.27 85.0081 585.8 84.0287 580.904C82.4001 572.737 80.1663 564.813 85.1842 556.899C86.1415 555.385 85.5693 552.556 85.0631 550.489C83.3245 543.317 83.9627 536.509 88.1333 530.408C92.5349 523.965 94.7578 516.947 95.0549 509.222C95.319 502.547 98.6092 497.695 103.297 493.064C108.304 488.113 112.397 482.189 116.7 476.553C119.077 473.436 117.767 471.347 114.169 470.806C108.931 470.021 103.66 469.38 98.3781 468.849C92.2268 468.22 85.7454 468.673 82.026 462.008C81.6078 461.257 79.374 460.605 78.7357 461.036C75.0713 463.523 73.0136 460.737 70.5816 458.947C66.0809 455.62 66.1029 455.72 63.4729 460.826C62.9998 461.743 60.931 462.484 59.8086 462.263C58.5431 462.008 57.3656 460.693 56.4193 459.61C54.2515 457.123 52.3587 456.096 48.9365 458.151C44.7989 460.627 34.1799 455.775 32.8264 451.089C32.3752 449.531 32.5843 447.144 33.5196 445.95C35.9405 442.867 34.2679 441.264 31.957 439.717C30.2844 438.601 28.4247 437.794 26.7301 436.711C22.1413 433.76 21.1069 430.312 23.7479 425.46C25.3105 422.575 27.4563 420.011 29.3931 417.337C32.5513 412.982 32.0891 411.468 27.7645 407.81C23.7589 404.417 19.8635 400.792 16.5402 396.747C14.5265 394.294 13.5031 390.934 12.3916 387.851C10.0258 381.264 11.3352 375.561 16.9694 371.107C18.1138 370.201 19.0932 369.074 20.2046 368.123C27.3243 362.045 26.554 355.944 18.1798 351.833C16.7163 351.114 14.8896 350.363 14.1963 349.092C13.5141 347.854 13.437 344.947 14.1743 344.483C17.3215 342.472 15.6159 341.168 14.0863 339.466C12.4907 337.697 10.9061 335.874 9.6296 333.873C7.13166 329.961 8.47417 326.369 11.2912 323.352C13.7342 320.733 13.1399 319.97 9.87169 319.429C6.04225 318.799 2.35585 317.627 0.661213 313.45C-0.626273 310.267 -0.307152 307.824 3.09313 306.133C6.20731 304.586 9.22245 302.84 12.1716 300.994C14.7135 299.403 15.902 297.701 11.9185 296.264C8.79329 295.137 8.77128 293.081 10.565 290.672C10.785 290.373 10.9831 290.053 11.2582 289.821C18.8731 283.366 17.9047 276.105 13.426 268.38C11.3132 264.733 9.24446 261.009 7.67086 257.118C6.4384 254.035 5.83317 250.653 5.31597 247.349C5.16191 246.343 6.02024 244.365 6.73551 244.188C9.70663 243.491 12.5237 243.016 12.9198 239.148C12.9198 239.038 15.2197 238.971 16.3752 239.225C19.4013 239.911 22.3834 240.795 25.3876 241.591C32.2211 243.414 37.4481 240.154 42.444 236.153C44.7769 234.285 44.0726 232.672 42.345 230.627C38.6586 226.273 39.902 222.946 45.3931 221.708C46.2624 221.509 47.649 221.576 47.9351 221.056C51.2143 214.967 54.4165 208.844 57.2886 202.555C57.5197 202.058 55.3079 199.848 53.8993 199.284C50.6861 198.002 47.1758 197.472 43.9516 196.223C38.7026 194.2 36.4797 190.487 37.4701 186.143C38.5485 181.402 42.345 178.65 47.66 178.761C55.0658 178.916 54.9337 178.905 55.748 171.478C56.4413 165.156 56.7274 158.89 61.3381 153.441C63.1208 151.341 62.0974 146.854 62.3505 143.45C61.9764 143.417 61.6132 143.373 61.2391 143.34L61.2831 143.373ZM255.606 76.1114C256.123 75.6583 256.651 75.1941 257.168 74.741L253.746 72.7848C254.362 73.901 254.978 75.0062 255.606 76.1224V76.1114ZM63.0218 142.92C63.671 143.074 64.3313 143.229 64.9805 143.384C64.5294 147.296 65.3987 152.259 63.3299 154.9C59.3464 160.006 58.7852 165.587 58.202 171.334C57.2116 180.993 57.3436 181.06 47.4289 181.115C43.3794 181.137 40.6503 182.894 39.869 186.873C39.0547 190.951 41.8388 192.985 45.085 194.189C47.9901 195.272 51.0603 195.88 54.0644 196.731C60.0286 198.411 61.4262 200.599 59.0053 206.39C56.9695 211.275 54.2185 215.895 51.3904 220.382C50.378 221.996 48.3973 223.443 46.5596 224.007C42.1469 225.344 41.6847 225.974 44.6889 229.533C46.9447 232.208 47.5169 234.805 44.8099 237.258C39.4839 242.044 33.6187 245.691 25.9818 244.166C23.1097 243.591 20.3036 242.674 17.4316 242.165C16.4412 241.988 14.4274 242.475 14.3944 242.817C14.0643 246.089 12.2706 246.685 9.42052 246.288C8.93634 246.221 7.69287 247.658 7.7809 248.244C8.16605 250.708 8.59521 253.272 9.60759 255.516C11.9625 260.699 14.6915 265.695 17.2225 270.79C20.3697 277.122 21.4921 283.245 15.2857 288.583C14.6145 289.169 14.2624 290.108 13.6461 290.782C12.2046 292.374 11.6654 293.291 14.2183 294.739C18.2239 297.004 18.2459 299.502 14.5044 302.309C11.8965 304.277 8.78228 305.559 6.05325 307.393C4.68874 308.31 2.49891 310.112 2.73 310.908C3.29121 312.798 4.75476 314.809 6.42739 315.859C8.18806 316.964 10.631 316.953 12.7438 317.55C15.968 318.445 16.8923 320.092 14.7465 323.142C9.55257 330.525 9.59659 330.58 15.5278 337.421C16.4852 338.515 17.8277 339.355 18.521 340.571C19.0272 341.466 19.2472 343.5 18.7631 343.842C13.9432 347.279 17.0244 348.76 20.2266 350.031C23.0657 351.158 24.9914 352.617 26.2239 355.789C28.6228 361.967 28.0946 366.664 21.8882 370.024C20.4797 370.787 19.4563 372.256 18.1578 373.262C14.0203 376.467 12.8868 380.722 14.2513 385.552C15.1427 388.69 16.056 392.139 18.0148 394.603C21.382 398.836 25.3435 402.693 29.4921 406.186C34.6641 410.54 35.3133 413.303 31.3628 418.74C29.6352 421.117 27.7094 423.371 26.2349 425.891C23.7259 430.179 24.4192 432.478 28.5898 435.031C30.1524 435.992 31.803 436.81 33.3326 437.805C36.7989 440.059 38.8566 442.668 35.8085 446.845C35.1703 447.718 34.9172 449.332 35.2253 450.382C36.1276 453.399 44.6999 457.886 47.2528 456.25C52.0506 453.178 55.4069 454.46 58.6971 458.361C59.1153 458.859 61.063 458.914 61.4482 458.461C65.9709 453.034 66.356 453.056 72.2873 457.101C73.8279 458.151 76.1717 458.814 77.9654 458.527C80.9255 458.052 82.5872 459.124 84.656 461.047C86.9008 463.147 89.8169 464.816 92.722 465.821C95.2309 466.694 98.1691 466.23 100.887 466.595C106.136 467.291 111.473 467.744 116.568 469.082C121.069 470.264 121.399 472.684 119.363 476.951C115.787 484.422 110.395 490.356 104.254 495.661C100.117 499.231 97.7509 503.486 97.4978 508.99C97.1237 517.047 95.0769 524.573 90.4001 531.281C86.3506 537.095 85.7784 543.438 87.407 550.257C87.9792 552.656 88.5514 555.938 87.407 557.717C82.6312 565.133 84.722 572.471 86.2626 580.075C87.0108 583.789 88.7275 584.949 92.2268 584.772C96.4194 584.562 100.854 583.789 104.761 584.839C109.096 585.999 112.331 585.181 115.336 582.495C118.813 579.39 122.279 579.755 125.933 581.888C127.506 582.816 128.948 584.043 130.62 584.728C131.38 585.037 133.085 584.651 133.437 584.043C134.978 581.39 136.508 580.44 138.972 582.993C139.127 583.148 140.26 582.352 140.931 582.009C139.93 580.716 138.972 579.39 137.916 578.152C136.684 576.693 134.67 575.5 134.208 573.853C133.085 569.819 136.023 565.641 139.721 565.177C144.519 564.581 149.118 568.15 149.437 572.46C149.503 573.378 150.571 574.881 151.297 574.958C155.82 575.433 160.409 575.986 164.931 575.743C173.415 575.301 181.008 577.301 187.226 583.159C192.266 587.911 197.317 589.502 203.336 585.137C204.194 584.507 205.328 584.087 206.384 583.954C207.121 583.866 208.596 584.374 208.629 584.739C209.113 589.005 212.81 587.834 215.176 589.038C217.927 590.442 220.249 592.707 222.791 594.542C223.66 595.172 224.607 595.89 225.608 596.111C226.698 596.343 227.908 596.023 229.064 595.946C228.854 597.15 228.59 598.355 228.469 599.571C228.326 601.074 228.304 602.588 228.238 604.091C229.9 603.627 232.002 603.66 233.135 602.61C237.625 598.443 240.222 593.326 239.407 586.916C239.154 584.916 238.747 582.871 238.956 580.904C239.209 578.55 241.355 577.334 242.731 579.257C245.482 583.081 248.783 582.23 252.447 581.943C254.934 581.755 257.652 582.164 259.963 583.092C261.284 583.623 263.121 586.419 262.769 587.005C259.776 591.978 263.782 592.564 266.566 592.674C270.252 592.818 273.993 591.845 277.702 591.315C279.253 591.094 281.355 589.956 282.214 590.585C285.922 593.315 287.221 590.298 288.86 588.176C289.575 587.248 289.509 585.535 290.335 584.905C301.559 576.384 313.697 570.604 328.332 572.637C329.377 572.781 330.467 572.637 331.534 572.637C331.303 571.62 331.281 570.471 330.775 569.609C329.697 567.763 328.596 566.15 330.962 564.426C332.998 562.945 334.858 561.563 337.146 564.083C337.675 564.658 338.863 565.056 339.622 564.901C343.595 564.105 346.676 565.73 349.801 567.896C350.626 568.471 352.816 568.194 353.642 567.465C359.595 562.193 362.555 562.436 367.353 569.023C369.301 571.698 370.962 574.605 373.119 577.08C374.197 578.318 376.398 579.744 377.587 579.39C378.863 579.003 380.338 576.616 380.316 575.124C380.261 571.941 379.226 568.791 378.731 565.608C378.412 563.564 377.642 562.956 375.452 563.265C373.647 563.52 371.688 562.757 369.807 562.448C370.28 560.414 370.313 558.137 371.303 556.413C373.471 552.633 373.207 550.058 369.807 546.864C365.911 543.195 362.775 538.642 359.738 534.177C358.99 533.083 359.21 530.099 360.123 529.292C365.713 524.396 371.567 519.787 377.466 515.267C381.779 511.963 386.632 509.299 390.55 505.608C392.101 504.149 392.706 500.38 392.068 498.148C390.384 492.191 390.34 491.583 396.536 491.395C398.748 491.329 401.004 492.423 403.226 493.031C404.239 493.307 406.01 494.136 406.076 494.003C407.518 491.196 410.06 488.168 409.785 485.438C409.29 480.476 407.969 475.149 405.383 470.971C403.182 467.413 399.078 463.721 395.193 462.848C389.493 461.555 387.083 457.798 384.123 453.863C383.1 452.515 381.306 450.426 380.25 450.647C375.023 451.719 372.47 448.194 369.708 445.11C367.023 442.104 364.8 438.667 362.071 435.716C361.036 434.6 359.144 434.213 357.603 433.627C354.599 432.489 351.023 432.124 348.646 430.234C339.116 422.642 334.373 411.723 330.214 400.704C329.322 398.339 330.258 393.995 332.007 392.183C335.089 388.978 333.438 387.729 331.182 385.784C323.985 379.617 316.194 374.157 312.002 364.951C310.428 361.503 309.603 358.939 312.849 357.082C316.128 355.203 318.23 358.11 319.859 360.541C320.794 361.945 321.179 363.713 321.807 365.327C322.808 363.636 323.831 361.956 324.811 360.243C325.361 359.293 325.834 358.298 326.34 357.314C329.212 351.788 333.295 348.65 339.963 349.136C343.925 349.423 347.996 348.882 351.947 348.263C353.289 348.053 355.325 346.605 355.479 345.511C355.908 342.372 358.263 341.665 360.233 340.062C365.24 336.006 370.401 332.58 376.673 330.69C378.841 330.038 380.481 327.452 382.241 325.618C383.507 324.302 384.376 321.761 385.719 321.529C392.915 320.291 398.517 316.445 404.217 312.19C407.727 309.57 412.591 308.852 416.409 306.542C422.484 302.873 422.264 302.685 417.444 297.447C416.464 296.386 415.672 294.496 415.914 293.192C416.09 292.241 417.994 291.269 419.292 290.926C423.76 289.743 430.803 292.341 433.037 295.977C434.962 299.104 436.47 302.508 438.495 305.57C439.287 306.763 440.916 307.835 442.291 308.045C443.381 308.211 445.581 307.15 445.757 306.31C447.584 297.966 454.726 291.191 451.204 281.001C449.587 276.326 452.613 270.005 447.529 265.684C448.2 258.058 443.953 254.952 437.119 253.913C435.612 253.681 434.027 252.543 432.938 251.382C431.925 250.322 430.671 248.41 431.001 247.338C432.079 243.956 430.561 241.812 428.69 239.391C426.61 236.695 424.607 233.843 423.188 230.771C422.594 229.489 423.375 227.389 423.947 225.809C424.607 223.974 426.082 222.416 426.599 220.57C428.877 212.48 423.958 205.296 423.397 197.538C423.364 197.041 422.429 196.532 421.834 196.167C413.405 191.039 412.679 189.072 415.859 179.833C418.698 171.588 418.511 171.091 411.479 165.841C408.982 163.973 406.715 161.785 404.173 159.995C401.642 158.215 399.012 155.762 396.195 155.375C391.221 154.69 390.616 152.546 391.232 148.136C391.837 143.804 390.825 138.963 394.852 135.935C398.627 133.095 399.386 129.569 398.88 125.27C398.693 123.645 398.495 121.767 399.1 120.363C401.664 114.417 400.211 108.747 398.164 103.199C395.755 96.6568 393.125 90.1914 390.219 83.8587C389.581 82.4662 387.061 80.6869 385.917 80.9963C378.863 82.9193 374.01 78.6865 368.937 75.2825C367.881 74.5752 366.979 71.8564 367.496 70.8618C369.587 66.8831 368.134 65.0485 364.69 62.9708C363.127 62.0314 362.533 59.2131 361.884 57.1243C361.4 55.566 361.532 53.8198 361.378 52.151C359.463 52.4384 357.35 52.2836 355.677 53.0794C348.932 56.3397 349.108 56.3176 343.683 50.8801C341.537 48.736 338.698 45.8183 336.189 45.8294C331.116 45.8515 330.291 42.6796 328.86 39.3309C327.87 37.0321 326.549 34.888 325.383 32.6666C323.688 34.656 321.895 36.5679 320.332 38.6678C319.056 40.3808 317.933 42.4254 315.699 40.1266C312.475 36.8111 309.966 38.082 307.468 40.9555C306.269 42.337 305.091 43.7737 303.694 44.9452C302.384 46.0504 300.8 46.8351 299.347 47.7524C298.896 46.2935 298.533 44.8015 297.95 43.409C297.785 43.0222 296.563 42.6796 296.552 42.6906C293.922 47.9292 287.485 50.9353 288.002 58.1301C288.244 61.534 285.526 60.5615 283.259 60.3957C277.68 59.9757 272.068 59.9094 266.478 59.832C265.916 59.832 264.772 60.8599 264.849 61.1693C266.434 67.2368 266.467 67.2478 260.855 68.9609C258.731 69.6129 256.343 69.7124 259.017 72.9616C259.842 73.9673 259.259 76.9182 258.313 78.2554C257.828 78.9407 254.747 78.5981 253.504 77.7471C251.798 76.5866 250.015 74.6747 249.542 72.7627C248.508 68.6404 246.274 69.414 243.864 70.8065C242.324 71.6907 241.025 73.0721 239.793 74.3873C238.043 76.2661 236.612 78.4765 234.742 80.2006C232.618 82.1568 230.802 82.3778 230.571 78.5649C230.461 76.7524 230.109 74.8957 229.471 73.2048C226.467 65.1701 226.643 65.5016 233.432 60.5394C236.304 58.4395 240.266 54.2398 239.76 51.8305C238.494 45.8183 241.333 43.829 245.559 41.7291C246.472 41.276 247.76 39.5519 247.551 39.1762C245.845 36.1479 243.952 33.1971 241.784 30.4894C241.289 29.8705 239.088 29.7931 238.384 30.3568C237.064 31.4178 236.128 33.0755 235.369 34.6449C235.259 34.877 236.92 36.0153 237.79 36.7005C238.846 37.5515 240.959 38.6678 240.827 39.143C240.354 40.7455 239.385 43.0111 238.087 43.4422C230.406 45.9951 222.439 49.9738 214.824 43.6411C209.718 39.3972 204.843 40.1708 199.605 42.8896C198.549 43.4422 197.317 43.6632 196.161 44.039C196.161 42.8343 196.106 41.6186 196.194 40.425C196.26 39.5188 196.535 38.6236 196.7 37.7173C197.206 34.9101 196.469 33.9155 193.531 35.1754C191.187 36.1811 188.7 36.9879 186.202 37.3968C184.992 37.5957 182.659 36.9547 182.472 36.2585C182.12 34.9101 182.67 33.1197 183.341 31.7714C183.759 30.9315 185.014 30.3457 186.015 29.9921C189.68 28.6659 190.45 25.9913 189.779 22.51C189.504 21.0622 189.504 19.5149 188.975 18.1777C187.897 15.4589 189.691 8.99359 182.857 13.1049C182.483 13.337 181.548 12.6186 180.865 12.3533C178.301 11.3587 175.627 10.5961 173.206 9.33619C170.686 8.02102 168.772 7.52369 166.758 10.2645C166.186 11.0382 164.084 10.6735 162.686 10.8392C163.71 5.09229 158.857 6.68375 156.348 6.14221C149.019 4.57285 141.613 3.22453 134.175 2.41774C129.487 1.90936 128.64 3.73291 130.719 8.00997C131.677 9.98825 133.812 12.3754 133.316 13.9006C131.027 20.9406 136.21 24.223 139.743 28.3232C142.428 31.4288 143.231 34.8438 141.602 38.5241C139.556 43.1659 135.66 45.2989 130.675 45.5199C129.102 45.5973 126.758 45.2547 127.704 47.885C128.166 49.167 129.982 50.6038 131.314 50.7585C133.415 51.0016 135.627 50.0843 137.806 49.9296C139.105 49.8412 140.447 50.2611 141.757 50.449C141.063 51.6537 140.535 53.0131 139.633 54.0188C135.088 59.0916 135.187 58.8484 140.711 62.2855C142.527 63.4128 143.495 65.9326 144.849 67.8225C143.297 68.7398 141.834 70.1655 140.183 70.4418C137.52 70.8839 137.432 72.4974 138.73 73.7021C141.041 75.8461 143.726 77.7581 146.565 79.1064C148.249 79.9132 150.549 79.3606 152.541 79.6148C153.498 79.7364 154.4 80.3111 155.325 80.6869C154.785 81.5821 154.444 82.6872 153.696 83.3172C149.68 86.6659 145.41 88.5226 140.073 86.058C137.443 84.8423 134.505 84.2676 131.666 83.5714C126.835 82.3999 124.898 83.6377 124.084 88.6442C123.71 90.9872 123.644 93.4407 123.886 95.7947C124.381 100.547 125.305 105.244 125.8 109.996C125.933 111.256 125.162 112.616 124.799 113.931C123.391 113.323 121.531 113.091 120.695 112.03C119.385 110.35 118.945 108.007 117.767 106.183C117.184 105.277 115.787 104.901 114.763 104.283C114.235 105.366 113.113 106.581 113.3 107.521C113.773 109.819 115.005 111.952 115.644 114.229C116.018 115.544 115.842 117.014 115.919 118.418C113.355 118.462 110.736 118.849 108.238 118.462C105.828 118.086 102.516 117.556 103.242 113.964C104.144 109.51 106.081 105.167 100.92 101.973C100.612 101.785 100.678 100.934 100.634 100.381C100.403 97.0657 98.3561 96.8557 95.6271 97.0767C87.8362 97.7288 80.0232 98.1488 72.2103 98.6682C66.0809 99.0771 61.2721 101.906 58.279 107.2C56.1332 110.991 54.8457 115.257 52.8649 119.158C51.5665 121.722 52.4908 123.181 54.7577 123.745C58.29 124.618 61.9104 125.447 65.5197 125.568C68.6009 125.679 68.3258 126.32 67.3794 128.762C65.5967 133.382 64.3753 138.223 62.9227 142.964L63.0218 142.92ZM319.683 365.106C318.197 363.238 316.723 361.381 315.248 359.525C314.599 360.232 313.267 361.37 313.399 361.569C314.808 363.747 316.448 365.769 318.021 367.836C318.428 367.162 318.846 366.487 319.683 365.117V365.106ZM136.607 584.54C136.287 585.17 135.869 585.645 135.891 586.087C135.913 586.485 136.42 586.872 136.706 587.259C136.97 586.883 137.465 586.485 137.443 586.121C137.41 585.634 136.97 585.192 136.596 584.54H136.607Z" fill="#99D100"/>
</svg>
